<svg xmlns="http://www.w3.org/2000/svg" viewBox="0 0 64 64" role="img" aria-label="Oasis Tasks">
  <defs>
    <linearGradient id="bg" x1="12" x2="54" y1="8" y2="58" gradientUnits="userSpaceOnUse">
      <stop stop-color="#c8894b"/>
      <stop offset="1" stop-color="#8f5a2f"/>
    </linearGradient>
    <linearGradient id="paper" x1="20" x2="44" y1="14" y2="52" gradientUnits="userSpaceOnUse">
      <stop stop-color="#fffaf2"/>
      <stop offset="1" stop-color="#f1e4d0"/>
    </linearGradient>
  </defs>
  <rect width="64" height="64" rx="18" fill="#f7f5f1"/>
  <rect x="8" y="8" width="48" height="48" rx="16" fill="url(#bg)"/>
  <path fill="url(#paper)" d="M23 14h18a5 5 0 0 1 5 5v27a5 5 0 0 1-5 5H23a5 5 0 0 1-5-5V19a5 5 0 0 1 5-5Z"/>
  <path fill="#f7f5f1" d="M27 12h10a4 4 0 0 1 4 4v2H23v-2a4 4 0 0 1 4-4Z"/>
  <path fill="none" stroke="#8f5a2f" stroke-linecap="round" stroke-linejoin="round" stroke-width="4" d="m24 34 6 6 12-15"/>
  <path stroke="#b6783f" stroke-linecap="round" stroke-width="3" d="M25 25h10"/>
  <path stroke="#b6783f" stroke-linecap="round" stroke-width="3" d="M25 46h14"/>
</svg>
